<mxfile host="app.diagrams.net" modified="2023-07-18T14:04:53.993Z" agent="Mozilla/5.0 (Windows NT 10.0; Win64; x64) AppleWebKit/537.36 (KHTML, like Gecko) Chrome/114.0.0.0 Safari/537.36" etag="G9U5H-Bq7dPbcdjxPvII" version="21.6.2" type="github">
  <diagram id="R2lEEEUBdFMjLlhIrx00" name="Page-1">
    <mxGraphModel dx="977" dy="591" grid="1" gridSize="10" guides="1" tooltips="1" connect="1" arrows="1" fold="1" page="1" pageScale="1" pageWidth="850" pageHeight="1100" math="0" shadow="0" extFonts="Permanent Marker^https://fonts.googleapis.com/css?family=Permanent+Marker">
      <root>
        <mxCell id="0" />
        <mxCell id="1" parent="0" />
        <mxCell id="zFe8Jc1kFJkEQD9ZP29R-1" value="Student" style="swimlane;childLayout=stackLayout;horizontal=1;startSize=50;horizontalStack=0;rounded=1;fontSize=14;fontStyle=0;strokeWidth=2;resizeParent=0;resizeLast=1;shadow=0;dashed=0;align=center;arcSize=4;whiteSpace=wrap;html=1;fillColor=#dae8fc;strokeColor=#6c8ebf;" vertex="1" parent="1">
          <mxGeometry x="110" y="80" width="160" height="120" as="geometry" />
        </mxCell>
        <mxCell id="zFe8Jc1kFJkEQD9ZP29R-2" value="firstName (string)&lt;br&gt;lastName (string)&lt;br&gt;email (string)&lt;br&gt;dateRegistered (dateTime)" style="align=left;strokeColor=none;fillColor=none;spacingLeft=4;fontSize=12;verticalAlign=top;resizable=0;rotatable=0;part=1;html=1;" vertex="1" parent="zFe8Jc1kFJkEQD9ZP29R-1">
          <mxGeometry y="50" width="160" height="70" as="geometry" />
        </mxCell>
        <mxCell id="zFe8Jc1kFJkEQD9ZP29R-3" value="Course" style="swimlane;childLayout=stackLayout;horizontal=1;startSize=50;horizontalStack=0;rounded=1;fontSize=14;fontStyle=0;strokeWidth=2;resizeParent=0;resizeLast=1;shadow=0;dashed=0;align=center;arcSize=4;whiteSpace=wrap;html=1;fillColor=#dae8fc;strokeColor=#6c8ebf;" vertex="1" parent="1">
          <mxGeometry x="410" y="80" width="160" height="120" as="geometry" />
        </mxCell>
        <mxCell id="zFe8Jc1kFJkEQD9ZP29R-4" value="title (string)&lt;br style=&quot;border-color: var(--border-color);&quot;&gt;price (float)&lt;br style=&quot;border-color: var(--border-color);&quot;&gt;instructor (string)&lt;br&gt;tags (string)" style="align=left;strokeColor=none;fillColor=none;spacingLeft=4;fontSize=12;verticalAlign=top;resizable=0;rotatable=0;part=1;html=1;" vertex="1" parent="zFe8Jc1kFJkEQD9ZP29R-3">
          <mxGeometry y="50" width="160" height="70" as="geometry" />
        </mxCell>
        <mxCell id="zFe8Jc1kFJkEQD9ZP29R-8" value="Enrollment" style="swimlane;childLayout=stackLayout;horizontal=1;startSize=50;horizontalStack=0;rounded=1;fontSize=14;fontStyle=0;strokeWidth=2;resizeParent=0;resizeLast=1;shadow=0;dashed=0;align=center;arcSize=4;whiteSpace=wrap;html=1;fillColor=#dae8fc;strokeColor=#6c8ebf;" vertex="1" parent="1">
          <mxGeometry x="270" y="290" width="160" height="120" as="geometry" />
        </mxCell>
        <mxCell id="zFe8Jc1kFJkEQD9ZP29R-9" value="date (dateTime)&lt;br&gt;price (float)" style="align=left;strokeColor=none;fillColor=none;spacingLeft=4;fontSize=12;verticalAlign=top;resizable=0;rotatable=0;part=1;html=1;" vertex="1" parent="zFe8Jc1kFJkEQD9ZP29R-8">
          <mxGeometry y="50" width="160" height="70" as="geometry" />
        </mxCell>
        <mxCell id="zFe8Jc1kFJkEQD9ZP29R-10" value="" style="edgeStyle=entityRelationEdgeStyle;fontSize=12;html=1;endArrow=ERoneToMany;rounded=0;entryX=-0.015;entryY=0.378;entryDx=0;entryDy=0;entryPerimeter=0;" edge="1" parent="1" source="zFe8Jc1kFJkEQD9ZP29R-2">
          <mxGeometry width="100" height="100" relative="1" as="geometry">
            <mxPoint x="180" y="220" as="sourcePoint" />
            <mxPoint x="269.99999999999994" y="373.45000000000005" as="targetPoint" />
            <Array as="points">
              <mxPoint x="210" y="250" />
              <mxPoint x="190" y="300" />
              <mxPoint x="230" y="370" />
              <mxPoint x="190" y="250" />
              <mxPoint x="210" y="220" />
              <mxPoint x="201.36" y="260" />
              <mxPoint x="182.39999999999998" y="246.99" />
              <mxPoint x="240.36" y="290" />
              <mxPoint x="201.36" y="290" />
              <mxPoint x="171.36" y="300" />
              <mxPoint x="202.39999999999998" y="306.99" />
            </Array>
          </mxGeometry>
        </mxCell>
        <mxCell id="zFe8Jc1kFJkEQD9ZP29R-11" value="" style="edgeStyle=entityRelationEdgeStyle;fontSize=12;html=1;endArrow=ERoneToMany;rounded=0;entryX=1.013;entryY=0.361;entryDx=0;entryDy=0;entryPerimeter=0;" edge="1" parent="1" source="zFe8Jc1kFJkEQD9ZP29R-4" target="zFe8Jc1kFJkEQD9ZP29R-9">
          <mxGeometry width="100" height="100" relative="1" as="geometry">
            <mxPoint x="490" y="204" as="sourcePoint" />
            <mxPoint x="430" y="367.5" as="targetPoint" />
            <Array as="points">
              <mxPoint x="450" y="210" />
            </Array>
          </mxGeometry>
        </mxCell>
      </root>
    </mxGraphModel>
  </diagram>
</mxfile>
